<svg width="61" height="58" viewBox="0 0 61 58" fill="none" xmlns="http://www.w3.org/2000/svg">
<ellipse cx="30.2401" cy="28.5851" rx="30.2401" ry="28.5851" fill="#5E51ED"/>
<path d="M20.7209 39.9662H39.7606C40.2198 39.9662 40.6006 39.6063 40.6006 39.1722C40.6006 38.7381 40.2198 38.3782 39.7606 38.3782H20.7209C20.2617 38.3782 19.8809 38.7381 19.8809 39.1722C19.8809 39.6063 20.2617 39.9662 20.7209 39.9662Z" fill="#292D32"/>
<path d="M22.401 35.2024C22.6138 35.2024 22.8266 35.1283 22.9946 34.9695L38.6744 20.1479C38.9992 19.8409 38.9992 19.3327 38.6744 19.0257C38.3496 18.7187 37.812 18.7187 37.4872 19.0257L21.8074 33.8473C21.4826 34.1543 21.4826 34.6625 21.8074 34.9695C21.9754 35.1283 22.1882 35.2024 22.401 35.2024Z" fill="#292D32"/>
<path d="M38.0807 31.253C38.5399 31.253 38.9207 30.893 38.9207 30.459V19.5863C38.9207 19.1522 38.5399 18.7922 38.0807 18.7922H26.5784C26.1192 18.7922 25.7385 19.1522 25.7385 19.5863C25.7385 20.0203 26.1192 20.3803 26.5784 20.3803H37.2407V30.459C37.2407 30.893 37.6215 31.253 38.0807 31.253Z" fill="#292D32"/>
</svg>
